<svg xmlns="http://www.w3.org/2000/svg" width="28" height="40" viewBox="0 0 28 40" shape-rendering="crispEdges">
  <rect x="9" y="1" width="10" height="1" fill="#8B6F47"/>
  <rect x="11" y="0" width="6" height="1" fill="#8B6F47"/>
  <rect x="8" y="2" width="12" height="1" fill="#8B6F47"/>
  <rect x="7" y="3" width="14" height="2" fill="#8B6F47"/>
  <rect x="7" y="3" width="14" height="1" fill="#a08858"/>
  <rect x="7" y="5" width="14" height="1" fill="#8B6F47"/>
  <rect x="7" y="6" width="14" height="2" fill="#8B6F47"/>
  <rect x="6" y="6" width="2" height="2" fill="#6a5435"/>
  <rect x="20" y="6" width="2" height="2" fill="#6a5435"/>
  <rect x="11" y="3" width="2" height="1" fill="#a08858"/>
  <rect x="15" y="3" width="2" height="1" fill="#a08858"/>
  <rect x="7" y="8" width="14" height="8" fill="#fcd9b6"/>
  <rect x="6" y="8" width="1" height="6" fill="#8B6F47"/>
  <rect x="21" y="8" width="1" height="6" fill="#8B6F47"/>
  <rect x="7" y="8" width="14" height="1" fill="#8B6F47"/>
  <rect x="9" y="8" width="3" height="1" fill="#a08858"/>
  <rect x="14" y="8" width="3" height="1" fill="#a08858"/>
  <rect x="9" y="10" width="3" height="1" fill="#1a1c2c"/>
  <rect x="16" y="10" width="3" height="1" fill="#1a1c2c"/>
  <rect x="9" y="11" width="3" height="2" fill="#ffffff"/>
  <rect x="16" y="11" width="3" height="2" fill="#ffffff"/>
  <rect x="10" y="11" width="2" height="2" fill="#D62828"/>
  <rect x="17" y="11" width="2" height="2" fill="#D62828"/>
  <rect x="11" y="12" width="1" height="1" fill="#1a1c2c"/>
  <rect x="18" y="12" width="1" height="1" fill="#1a1c2c"/>
  <rect x="13" y="13" width="2" height="2" fill="#e8b990"/>
  <rect x="14" y="14" width="1" height="1" fill="#c89878"/>
  <rect x="11" y="15" width="6" height="1" fill="#a07050"/>
  <rect x="11" y="16" width="6" height="2" fill="#fcd9b6"/>
  <rect x="11" y="16" width="6" height="1" fill="#c89878"/>
  <rect x="9" y="17" width="3" height="2" fill="#F5F5F5"/>
  <rect x="16" y="17" width="3" height="2" fill="#F5F5F5"/>
  <rect x="9" y="17" width="10" height="1" fill="#cccccc"/>
  <rect x="13" y="17" width="2" height="1" fill="#B83A2E"/>
  <rect x="13" y="18" width="2" height="9" fill="#B83A2E"/>
  <rect x="13" y="18" width="2" height="1" fill="#a02a1e"/>
  <rect x="13" y="26" width="2" height="1" fill="#7c1d12"/>
  <rect x="6" y="19" width="16" height="9" fill="#B89968"/>
  <rect x="6" y="19" width="16" height="1" fill="#cba884"/>
  <rect x="6" y="19" width="2" height="9" fill="#8b6f47"/>
  <rect x="20" y="19" width="2" height="9" fill="#8b6f47"/>
  <rect x="11" y="19" width="2" height="6" fill="#B89968"/>
  <rect x="15" y="19" width="2" height="6" fill="#B89968"/>
  <rect x="13" y="19" width="2" height="9" fill="#B83A2E"/>
  <rect x="4" y="20" width="3" height="8" fill="#B89968"/>
  <rect x="4" y="20" width="1" height="8" fill="#8b6f47"/>
  <rect x="3" y="28" width="4" height="6" fill="#1A1A1A"/>
  <rect x="3" y="28" width="4" height="1" fill="#3a3a3a"/>
  <rect x="4" y="30" width="2" height="1" fill="#F5F5F5"/>
  <rect x="4" y="31" width="2" height="1" fill="#F5F5F5"/>
  <rect x="20" y="20" width="3" height="8" fill="#B89968"/>
  <rect x="22" y="20" width="1" height="8" fill="#8b6f47"/>
  <rect x="20" y="28" width="3" height="2" fill="#fcd9b6"/>
  <rect x="22" y="28" width="1" height="2" fill="#c89878"/>
  <rect x="6" y="28" width="16" height="1" fill="#0a0a14"/>
  <rect x="8" y="29" width="12" height="6" fill="#5C5C5C"/>
  <rect x="8" y="29" width="1" height="6" fill="#3a3a3a"/>
  <rect x="19" y="29" width="1" height="6" fill="#3a3a3a"/>
  <rect x="13" y="29" width="2" height="6" fill="#7a7a7a"/>
  <rect x="9" y="35" width="4" height="2" fill="#5C5C5C"/>
  <rect x="15" y="35" width="4" height="2" fill="#5C5C5C"/>
  <rect x="8" y="37" width="5" height="3" fill="#1a0a05"/>
  <rect x="8" y="37" width="5" height="1" fill="#3d2510"/>
  <rect x="7" y="39" width="6" height="1" fill="#0a0502"/>
  <rect x="15" y="37" width="5" height="3" fill="#1a0a05"/>
  <rect x="15" y="37" width="5" height="1" fill="#3d2510"/>
  <rect x="15" y="39" width="6" height="1" fill="#0a0502"/>
</svg>
