<svg xmlns="http://www.w3.org/2000/svg" width="28" height="40" viewBox="0 0 28 40" shape-rendering="crispEdges">
  <rect x="11" y="0" width="6" height="1" fill="#fde047"/>
  <rect x="10" y="1" width="8" height="1" fill="#fbbf24"/>
  <rect x="11" y="1" width="6" height="1" fill="#fde047"/>
  <rect x="9" y="2" width="10" height="1" fill="#d97706"/>
  <rect x="10" y="2" width="8" height="1" fill="#fbbf24"/>
  <rect x="9" y="3" width="10" height="1" fill="#991b1b"/>
  <rect x="10" y="3" width="8" height="1" fill="#dc2626"/>
  <rect x="2" y="4" width="24" height="1" fill="#fbbf24"/>
  <rect x="3" y="4" width="22" height="1" fill="#fde047"/>
  <rect x="2" y="5" width="24" height="1" fill="#92400e"/>
  <rect x="3" y="5" width="22" height="1" fill="#d97706"/>
  <rect x="6" y="6" width="2" height="2" fill="#1a1c2c"/>
  <rect x="20" y="6" width="2" height="2" fill="#1a1c2c"/>
  <rect x="5" y="7" width="2" height="1" fill="#050508"/>
  <rect x="21" y="7" width="2" height="1" fill="#050508"/>
  <rect x="8" y="6" width="12" height="2" fill="#a07050"/>
  <rect x="9" y="6" width="10" height="1" fill="#7c4422"/>
  <rect x="7" y="8" width="14" height="9" fill="#fcd9b6"/>
  <rect x="6" y="8" width="2" height="6" fill="#1a1c2c"/>
  <rect x="20" y="8" width="2" height="6" fill="#1a1c2c"/>
  <rect x="5" y="9" width="1" height="4" fill="#050508"/>
  <rect x="22" y="9" width="1" height="4" fill="#050508"/>
  <rect x="7" y="8" width="14" height="1" fill="#e8b990"/>
  <rect x="9" y="10" width="3" height="1" fill="#1a1c2c"/>
  <rect x="16" y="10" width="3" height="1" fill="#1a1c2c"/>
  <rect x="9" y="11" width="3" height="3" fill="#ffffff"/>
  <rect x="16" y="11" width="3" height="3" fill="#ffffff"/>
  <rect x="10" y="12" width="1" height="1" fill="#1a1c2c"/>
  <rect x="17" y="12" width="1" height="1" fill="#1a1c2c"/>
  <rect x="13" y="13" width="2" height="2" fill="#e8b990"/>
  <rect x="14" y="14" width="1" height="1" fill="#c89878"/>
  <rect x="17" y="14" width="1" height="2" fill="#c89878"/>
  <rect x="11" y="15" width="6" height="2" fill="#1a1c2c"/>
  <rect x="12" y="16" width="4" height="1" fill="#ffffff"/>
  <rect x="8" y="17" width="12" height="1" fill="#e8b990"/>
  <rect x="11" y="18" width="6" height="2" fill="#fcd9b6"/>
  <rect x="11" y="18" width="6" height="1" fill="#c89878"/>
  <rect x="8" y="19" width="12" height="9" fill="#fcd9b6"/>
  <rect x="9" y="19" width="10" height="1" fill="#c89878"/>
  <rect x="11" y="22" width="6" height="1" fill="#e8b990"/>
  <rect x="13" y="24" width="2" height="2" fill="#e8b990"/>
  <rect x="11" y="26" width="6" height="1" fill="#c89878"/>
  <rect x="7" y="19" width="3" height="9" fill="#dc2626"/>
  <rect x="7" y="19" width="1" height="9" fill="#7f1d1d"/>
  <rect x="7" y="19" width="3" height="1" fill="#7f1d1d"/>
  <rect x="8" y="20" width="2" height="2" fill="#ef4444"/>
  <rect x="7" y="24" width="3" height="1" fill="#991b1b"/>
  <rect x="8" y="22" width="1" height="1" fill="#fbbf24"/>
  <rect x="18" y="19" width="3" height="9" fill="#dc2626"/>
  <rect x="20" y="19" width="1" height="9" fill="#7f1d1d"/>
  <rect x="18" y="19" width="3" height="1" fill="#7f1d1d"/>
  <rect x="18" y="20" width="2" height="2" fill="#ef4444"/>
  <rect x="18" y="24" width="3" height="1" fill="#991b1b"/>
  <rect x="19" y="22" width="1" height="1" fill="#fbbf24"/>
  <rect x="4" y="20" width="3" height="8" fill="#fcd9b6"/>
  <rect x="4" y="20" width="1" height="8" fill="#e8b990"/>
  <rect x="5" y="22" width="2" height="2" fill="#ffeacc"/>
  <rect x="4" y="25" width="3" height="1" fill="#e8b990"/>
  <rect x="3" y="28" width="3" height="2" fill="#fcd9b6"/>
  <rect x="3" y="28" width="1" height="2" fill="#e8b990"/>
  <rect x="3" y="29" width="3" height="1" fill="#c89878"/>
  <rect x="7" y="27" width="14" height="2" fill="#fbbf24"/>
  <rect x="7" y="27" width="14" height="1" fill="#fde047"/>
  <rect x="7" y="28" width="14" height="1" fill="#d97706"/>
  <rect x="8" y="29" width="12" height="5" fill="#3b82f6"/>
  <rect x="8" y="29" width="1" height="5" fill="#1e40af"/>
  <rect x="19" y="29" width="1" height="5" fill="#1e40af"/>
  <rect x="13" y="30" width="2" height="3" fill="#2563eb"/>
  <rect x="8" y="33" width="12" height="1" fill="#1e40af"/>
  <rect x="8" y="34" width="12" height="1" fill="#1e3a8a"/>
  <rect x="9" y="35" width="4" height="2" fill="#fcd9b6"/>
  <rect x="9" y="35" width="1" height="2" fill="#e8b990"/>
  <rect x="15" y="35" width="4" height="2" fill="#fcd9b6"/>
  <rect x="18" y="35" width="1" height="2" fill="#c89878"/>
  <rect x="8" y="37" width="5" height="3" fill="#92400e"/>
  <rect x="8" y="37" width="5" height="1" fill="#5a3a1a"/>
  <rect x="10" y="38" width="1" height="2" fill="#5a3a1a"/>
  <rect x="7" y="39" width="6" height="1" fill="#3d2510"/>
  <rect x="15" y="37" width="5" height="3" fill="#92400e"/>
  <rect x="15" y="37" width="5" height="1" fill="#5a3a1a"/>
  <rect x="17" y="38" width="1" height="2" fill="#5a3a1a"/>
  <rect x="15" y="39" width="6" height="1" fill="#3d2510"/>
  <rect x="21" y="14" width="2" height="6" fill="#fcd9b6"/>
  <rect x="22" y="14" width="1" height="6" fill="#c89878"/>
  <rect x="22" y="9" width="2" height="5" fill="#fcd9b6"/>
  <rect x="23" y="9" width="1" height="5" fill="#c89878"/>
  <rect x="22" y="9" width="1" height="5" fill="#ffeacc"/>
  <rect x="21" y="6" width="3" height="3" fill="#fcd9b6"/>
  <rect x="23" y="6" width="1" height="3" fill="#c89878"/>
  <rect x="21" y="6" width="3" height="1" fill="#c89878"/>
  <rect x="21" y="8" width="3" height="1" fill="#a07050"/>
</svg>
