<svg xmlns="http://www.w3.org/2000/svg" width="16" height="12" viewBox="0 0 16 12" shape-rendering="crispEdges">
  <rect x="0" y="3" width="4" height="6" fill="#7a5a35"/>
  <rect x="0" y="3" width="4" height="1" fill="#92400e"/>
  <rect x="0" y="8" width="4" height="1" fill="#3a2d1a"/>
  <rect x="4" y="2" width="7" height="8" fill="#fcd9b6"/>
  <rect x="11" y="1" width="3" height="10" fill="#fcd9b6"/>
  <rect x="14" y="2" width="1" height="8" fill="#fcd9b6"/>
  <rect x="12" y="0" width="2" height="1" fill="#fcd9b6"/>
  <rect x="4" y="2" width="11" height="1" fill="#fef3c7"/>
  <rect x="11" y="1" width="3" height="1" fill="#fef3c7"/>
  <rect x="4" y="9" width="11" height="1" fill="#92400e"/>
  <rect x="13" y="3" width="1" height="1" fill="#7a5a35"/>
  <rect x="13" y="5" width="1" height="1" fill="#7a5a35"/>
  <rect x="13" y="7" width="1" height="1" fill="#7a5a35"/>
  <rect x="11" y="0" width="1" height="1" fill="#1a1c2c"/>
  <rect x="14" y="0" width="1" height="1" fill="#1a1c2c"/>
  <rect x="11" y="11" width="1" height="1" fill="#1a1c2c"/>
  <rect x="14" y="11" width="1" height="1" fill="#1a1c2c"/>
  <rect x="15" y="1" width="1" height="10" fill="#1a1c2c"/>
  <rect x="4" y="1" width="7" height="1" fill="#1a1c2c"/>
  <rect x="4" y="10" width="7" height="1" fill="#1a1c2c"/>
  <rect x="3" y="2" width="1" height="8" fill="#1a1c2c"/>
</svg>
