<svg xmlns="http://www.w3.org/2000/svg" width="20" height="20" viewBox="0 0 20 20" shape-rendering="crispEdges">
  <rect x="3" y="2" width="14" height="16" fill="#1a1c2c"/>
  <rect x="2" y="3" width="16" height="14" fill="#1a1c2c"/>
  <rect x="3" y="3" width="14" height="14" fill="#fcd9b6"/>
  <rect x="2" y="5" width="1" height="10" fill="#fcd9b6"/>
  <rect x="17" y="5" width="1" height="10" fill="#fcd9b6"/>
  <rect x="4" y="5" width="3" height="3" fill="#92400e"/>
  <rect x="13" y="5" width="3" height="3" fill="#92400e"/>
  <rect x="4" y="11" width="3" height="3" fill="#92400e"/>
  <rect x="13" y="11" width="3" height="3" fill="#92400e"/>
  <rect x="5" y="6" width="1" height="1" fill="#1a1c2c"/>
  <rect x="14" y="6" width="1" height="1" fill="#1a1c2c"/>
  <rect x="5" y="12" width="1" height="1" fill="#1a1c2c"/>
  <rect x="14" y="12" width="1" height="1" fill="#1a1c2c"/>
  <rect x="3" y="3" width="14" height="2" fill="#fef3c7"/>
  <rect x="3" y="9" width="14" height="1" fill="#fda4af"/>
  <rect x="0" y="8" width="3" height="4" fill="#fda4af"/>
  <rect x="17" y="8" width="3" height="4" fill="#fda4af"/>
  <rect x="0" y="9" width="3" height="2" fill="#fcd9b6"/>
  <rect x="17" y="9" width="3" height="2" fill="#fcd9b6"/>
</svg>
