<svg xmlns="http://www.w3.org/2000/svg" width="16" height="16" viewBox="0 0 16 16" shape-rendering="crispEdges">
  <rect x="3" y="3" width="10" height="10" fill="#94a3b8"/>
  <rect x="3" y="3" width="10" height="1" fill="#1f2937"/>
  <rect x="3" y="12" width="10" height="1" fill="#1f2937"/>
  <rect x="3" y="3" width="1" height="10" fill="#1f2937"/>
  <rect x="12" y="3" width="1" height="10" fill="#1f2937"/>
  <rect x="4" y="5" width="1" height="1" fill="#cbd5e1"/>
  <rect x="6" y="5" width="1" height="1" fill="#cbd5e1"/>
  <rect x="8" y="5" width="1" height="1" fill="#cbd5e1"/>
  <rect x="10" y="5" width="1" height="1" fill="#cbd5e1"/>
  <rect x="5" y="7" width="1" height="1" fill="#cbd5e1"/>
  <rect x="7" y="7" width="1" height="1" fill="#cbd5e1"/>
  <rect x="9" y="7" width="1" height="1" fill="#cbd5e1"/>
  <rect x="11" y="7" width="1" height="1" fill="#cbd5e1"/>
  <rect x="4" y="9" width="1" height="1" fill="#cbd5e1"/>
  <rect x="6" y="9" width="1" height="1" fill="#cbd5e1"/>
  <rect x="8" y="9" width="1" height="1" fill="#cbd5e1"/>
  <rect x="10" y="9" width="1" height="1" fill="#cbd5e1"/>
</svg>
