<svg xmlns="http://www.w3.org/2000/svg" width="28" height="40" viewBox="0 0 28 40" shape-rendering="crispEdges">
  <rect x="13" y="0" width="2" height="1" fill="#1a1c2c"/>
  <rect x="8" y="1" width="2" height="1" fill="#1a1c2c"/>
  <rect x="12" y="1" width="4" height="1" fill="#1a1c2c"/>
  <rect x="18" y="1" width="2" height="1" fill="#1a1c2c"/>
  <rect x="8" y="2" width="3" height="1" fill="#1a1c2c"/>
  <rect x="11" y="2" width="6" height="1" fill="#1a1c2c"/>
  <rect x="17" y="2" width="3" height="1" fill="#1a1c2c"/>
  <rect x="4" y="3" width="2" height="1" fill="#1a1c2c"/>
  <rect x="6" y="3" width="2" height="1" fill="#050508"/>
  <rect x="8" y="3" width="3" height="1" fill="#1a1c2c"/>
  <rect x="11" y="3" width="6" height="1" fill="#050508"/>
  <rect x="12" y="3" width="4" height="1" fill="#1a1c2c"/>
  <rect x="17" y="3" width="3" height="1" fill="#1a1c2c"/>
  <rect x="20" y="3" width="2" height="1" fill="#050508"/>
  <rect x="22" y="3" width="2" height="1" fill="#1a1c2c"/>
  <rect x="4" y="4" width="20" height="1" fill="#050508"/>
  <rect x="5" y="4" width="2" height="1" fill="#2a3a4c"/>
  <rect x="9" y="4" width="2" height="1" fill="#2a3a4c"/>
  <rect x="13" y="4" width="2" height="1" fill="#2a3a4c"/>
  <rect x="17" y="4" width="2" height="1" fill="#2a3a4c"/>
  <rect x="21" y="4" width="2" height="1" fill="#2a3a4c"/>
  <rect x="3" y="5" width="22" height="1" fill="#050508"/>
  <rect x="11" y="5" width="2" height="1" fill="#2a3a4c"/>
  <rect x="16" y="5" width="2" height="1" fill="#2a3a4c"/>
  <rect x="3" y="6" width="22" height="1" fill="#050508"/>
  <rect x="3" y="7" width="22" height="1" fill="#050508"/>
  <rect x="7" y="8" width="14" height="8" fill="#fcd9b6"/>
  <rect x="4" y="8" width="3" height="6" fill="#050508"/>
  <rect x="21" y="8" width="3" height="6" fill="#050508"/>
  <rect x="7" y="8" width="3" height="1" fill="#1a1c2c"/>
  <rect x="11" y="8" width="2" height="1" fill="#1a1c2c"/>
  <rect x="15" y="8" width="2" height="1" fill="#1a1c2c"/>
  <rect x="18" y="8" width="3" height="1" fill="#1a1c2c"/>
  <rect x="7" y="9" width="2" height="1" fill="#050508"/>
  <rect x="11" y="9" width="2" height="1" fill="#050508"/>
  <rect x="15" y="9" width="2" height="1" fill="#050508"/>
  <rect x="19" y="9" width="2" height="1" fill="#050508"/>
  <rect x="9" y="10" width="10" height="1" fill="#e8b990"/>
  <rect x="9" y="11" width="3" height="1" fill="#1a1c2c"/>
  <rect x="16" y="11" width="3" height="1" fill="#1a1c2c"/>
  <rect x="9" y="12" width="3" height="2" fill="#ffffff"/>
  <rect x="16" y="12" width="3" height="2" fill="#ffffff"/>
  <rect x="10" y="12" width="2" height="2" fill="#1a1c2c"/>
  <rect x="17" y="12" width="2" height="2" fill="#1a1c2c"/>
  <rect x="13" y="14" width="2" height="2" fill="#e8b990"/>
  <rect x="14" y="15" width="1" height="1" fill="#c89878"/>
  <rect x="7" y="16" width="14" height="1" fill="#e8b990"/>
  <rect x="12" y="16" width="4" height="1" fill="#a07050"/>
  <rect x="11" y="17" width="6" height="2" fill="#fcd9b6"/>
  <rect x="11" y="17" width="6" height="1" fill="#c89878"/>
  <rect x="11" y="19" width="6" height="3" fill="#1e40af"/>
  <rect x="8" y="19" width="3" height="9" fill="#f97316"/>
  <rect x="17" y="19" width="3" height="9" fill="#f97316"/>
  <rect x="8" y="22" width="12" height="6" fill="#f97316"/>
  <rect x="13" y="20" width="2" height="2" fill="#1e40af"/>
  <rect x="8" y="19" width="2" height="9" fill="#c2410c"/>
  <rect x="18" y="19" width="2" height="9" fill="#c2410c"/>
  <rect x="13" y="22" width="2" height="5" fill="#ea580c"/>
  <rect x="11" y="19" width="1" height="3" fill="#3b82f6"/>
  <rect x="16" y="19" width="1" height="3" fill="#3b82f6"/>
  <rect x="11" y="22" width="6" height="1" fill="#3b82f6"/>
  <rect x="8" y="27" width="12" height="2" fill="#3b82f6"/>
  <rect x="8" y="27" width="12" height="1" fill="#1d4ed8"/>
  <rect x="8" y="28" width="12" height="1" fill="#1e40af"/>
  <rect x="5" y="20" width="3" height="7" fill="#f97316"/>
  <rect x="5" y="20" width="1" height="7" fill="#c2410c"/>
  <rect x="6" y="22" width="2" height="2" fill="#ea580c"/>
  <rect x="5" y="27" width="3" height="2" fill="#3b82f6"/>
  <rect x="5" y="27" width="3" height="1" fill="#1d4ed8"/>
  <rect x="4" y="29" width="3" height="2" fill="#fcd9b6"/>
  <rect x="4" y="29" width="1" height="2" fill="#e8b990"/>
  <rect x="4" y="30" width="3" height="1" fill="#c89878"/>
  <rect x="20" y="20" width="3" height="7" fill="#f97316"/>
  <rect x="22" y="20" width="1" height="7" fill="#c2410c"/>
  <rect x="20" y="22" width="2" height="2" fill="#ea580c"/>
  <rect x="20" y="27" width="3" height="2" fill="#3b82f6"/>
  <rect x="20" y="27" width="3" height="1" fill="#1d4ed8"/>
  <rect x="21" y="29" width="3" height="2" fill="#fcd9b6"/>
  <rect x="23" y="29" width="1" height="2" fill="#e8b990"/>
  <rect x="21" y="30" width="3" height="1" fill="#c89878"/>
  <rect x="8" y="29" width="12" height="6" fill="#f97316"/>
  <rect x="8" y="29" width="1" height="6" fill="#c2410c"/>
  <rect x="19" y="29" width="1" height="6" fill="#c2410c"/>
  <rect x="13" y="29" width="2" height="6" fill="#ea580c"/>
  <rect x="9" y="33" width="3" height="1" fill="#c2410c"/>
  <rect x="16" y="33" width="3" height="1" fill="#c2410c"/>
  <rect x="9" y="35" width="4" height="2" fill="#f97316"/>
  <rect x="9" y="35" width="1" height="2" fill="#c2410c"/>
  <rect x="12" y="35" width="1" height="2" fill="#ea580c"/>
  <rect x="15" y="33" width="4" height="2" fill="#f97316"/>
  <rect x="15" y="33" width="1" height="2" fill="#ea580c"/>
  <rect x="18" y="33" width="1" height="2" fill="#c2410c"/>
  <rect x="8" y="37" width="5" height="3" fill="#1e40af"/>
  <rect x="8" y="37" width="5" height="1" fill="#fbbf24"/>
  <rect x="8" y="38" width="5" height="1" fill="#3b82f6"/>
  <rect x="7" y="39" width="6" height="1" fill="#1e293b"/>
  <rect x="15" y="35" width="5" height="3" fill="#1e40af"/>
  <rect x="15" y="35" width="5" height="1" fill="#fbbf24"/>
  <rect x="15" y="36" width="5" height="1" fill="#3b82f6"/>
  <rect x="15" y="37" width="6" height="1" fill="#1e293b"/>
</svg>
