<svg xmlns="http://www.w3.org/2000/svg" width="28" height="40" viewBox="0 0 28 40" shape-rendering="crispEdges">
  <rect x="12" y="0" width="4" height="1" fill="#fcd9b6"/>
  <rect x="11" y="1" width="6" height="1" fill="#fcd9b6"/>
  <rect x="10" y="2" width="8" height="1" fill="#fcd9b6"/>
  <rect x="9" y="3" width="10" height="1" fill="#fcd9b6"/>
  <rect x="8" y="4" width="12" height="8" fill="#fcd9b6"/>
  <rect x="9" y="11" width="10" height="1" fill="#fcd9b6"/>
  <rect x="10" y="12" width="8" height="1" fill="#fcd9b6"/>
  <rect x="8" y="4" width="12" height="1" fill="#ffeacc"/>
  <rect x="18" y="5" width="2" height="7" fill="#e8b990"/>
  <rect x="11" y="8" width="1" height="1" fill="#1a1c2c"/>
  <rect x="16" y="8" width="1" height="1" fill="#1a1c2c"/>
  <rect x="12" y="10" width="4" height="1" fill="#c89878"/>
  <rect x="11" y="13" width="6" height="1" fill="#c89878"/>
  <rect x="11" y="14" width="6" height="1" fill="#fcd9b6"/>
  <rect x="6" y="15" width="16" height="14" fill="#f5f5f5"/>
  <rect x="5" y="20" width="18" height="9" fill="#f5f5f5"/>
  <rect x="4" y="25" width="20" height="6" fill="#f5f5f5"/>
  <rect x="4" y="30" width="20" height="2" fill="#FFD23F"/>
  <rect x="9" y="15" width="10" height="11" fill="#FFD23F"/>
  <rect x="9" y="15" width="2" height="11" fill="#c2a02e"/>
  <rect x="17" y="15" width="2" height="11" fill="#c2a02e"/>
  <rect x="6" y="16" width="3" height="7" fill="#FFD23F"/>
  <rect x="6" y="16" width="1" height="7" fill="#c2a02e"/>
  <rect x="19" y="16" width="3" height="7" fill="#FFD23F"/>
  <rect x="21" y="16" width="1" height="7" fill="#c2a02e"/>
  <rect x="5" y="23" width="4" height="3" fill="#C8302E"/>
  <rect x="5" y="23" width="4" height="1" fill="#dc4844"/>
  <rect x="19" y="23" width="4" height="3" fill="#C8302E"/>
  <rect x="19" y="23" width="4" height="1" fill="#dc4844"/>
  <rect x="9" y="26" width="10" height="1" fill="#ffffff"/>
  <rect x="13" y="26" width="2" height="1" fill="#E8C547"/>
  <rect x="10" y="27" width="8" height="6" fill="#FFD23F"/>
  <rect x="10" y="27" width="1" height="6" fill="#c2a02e"/>
  <rect x="17" y="27" width="1" height="6" fill="#c2a02e"/>
  <rect x="13" y="27" width="2" height="6" fill="#fde047"/>
  <rect x="10" y="33" width="3" height="2" fill="#FFD23F"/>
  <rect x="15" y="31" width="3" height="2" fill="#FFD23F"/>
  <rect x="9" y="35" width="5" height="4" fill="#C8302E"/>
  <rect x="9" y="35" width="5" height="1" fill="#dc4844"/>
  <rect x="8" y="39" width="6" height="1" fill="#7c1d1c"/>
  <rect x="14" y="33" width="5" height="4" fill="#C8302E"/>
  <rect x="14" y="33" width="5" height="1" fill="#dc4844"/>
  <rect x="14" y="37" width="6" height="1" fill="#7c1d1c"/>
</svg>
