<svg xmlns="http://www.w3.org/2000/svg" width="16" height="16" viewBox="0 0 16 16" shape-rendering="crispEdges">
  <rect x="1" y="6" width="3" height="3" fill="#1a1c2c"/>
  <rect x="6" y="6" width="3" height="3" fill="#1a1c2c"/>
  <rect x="11" y="6" width="3" height="3" fill="#1a1c2c"/>
  <rect x="2" y="7" width="1" height="1" fill="#374151"/>
  <rect x="7" y="7" width="1" height="1" fill="#374151"/>
  <rect x="12" y="7" width="1" height="1" fill="#374151"/>
  <rect x="0" y="7" width="1" height="1" fill="#fda4af"/>
  <rect x="5" y="7" width="1" height="1" fill="#fda4af"/>
  <rect x="10" y="7" width="1" height="1" fill="#fda4af"/>
  <rect x="2" y="3" width="2" height="2" fill="#fbbf24"/>
  <rect x="7" y="3" width="2" height="2" fill="#fbbf24"/>
  <rect x="12" y="3" width="2" height="2" fill="#fbbf24"/>
  <rect x="2" y="11" width="2" height="2" fill="#fbbf24"/>
  <rect x="7" y="11" width="2" height="2" fill="#fbbf24"/>
  <rect x="12" y="11" width="2" height="2" fill="#fbbf24"/>
</svg>
