<svg xmlns="http://www.w3.org/2000/svg" width="10" height="10" viewBox="0 0 10 10" shape-rendering="crispEdges">
  <rect x="1" y="1" width="3" height="1" fill="#3a3a3a"/>
  <rect x="6" y="1" width="3" height="1" fill="#3a3a3a"/>
  <rect x="0" y="2" width="10" height="1" fill="#3a3a3a"/>
  <rect x="0" y="3" width="1" height="3" fill="#3a3a3a"/>
  <rect x="9" y="3" width="1" height="3" fill="#3a3a3a"/>
  <rect x="1" y="6" width="1" height="1" fill="#3a3a3a"/>
  <rect x="8" y="6" width="1" height="1" fill="#3a3a3a"/>
  <rect x="2" y="7" width="1" height="1" fill="#3a3a3a"/>
  <rect x="7" y="7" width="1" height="1" fill="#3a3a3a"/>
  <rect x="3" y="8" width="1" height="1" fill="#3a3a3a"/>
  <rect x="6" y="8" width="1" height="1" fill="#3a3a3a"/>
  <rect x="4" y="9" width="2" height="1" fill="#3a3a3a"/>
  <rect x="1" y="3" width="2" height="3" fill="#1a1c2c"/>
  <rect x="7" y="3" width="2" height="3" fill="#1a1c2c"/>
  <rect x="2" y="6" width="6" height="1" fill="#1a1c2c"/>
  <rect x="3" y="7" width="4" height="1" fill="#1a1c2c"/>
  <rect x="4" y="8" width="2" height="1" fill="#1a1c2c"/>
</svg>
