<svg xmlns="http://www.w3.org/2000/svg" width="28" height="40" viewBox="0 0 28 40" shape-rendering="crispEdges">
  <rect x="13" y="0" width="2" height="1" fill="#FFE066"/>
  <rect x="8" y="1" width="2" height="1" fill="#FFE066"/>
  <rect x="12" y="1" width="4" height="1" fill="#FFE066"/>
  <rect x="18" y="1" width="2" height="1" fill="#FFE066"/>
  <rect x="8" y="2" width="3" height="1" fill="#FFE066"/>
  <rect x="11" y="2" width="6" height="1" fill="#FFE066"/>
  <rect x="17" y="2" width="3" height="1" fill="#FFE066"/>
  <rect x="6" y="3" width="2" height="1" fill="#FFE066"/>
  <rect x="8" y="3" width="4" height="1" fill="#d4b840"/>
  <rect x="11" y="3" width="6" height="1" fill="#FFE066"/>
  <rect x="16" y="3" width="4" height="1" fill="#d4b840"/>
  <rect x="20" y="3" width="2" height="1" fill="#FFE066"/>
  <rect x="5" y="4" width="18" height="1" fill="#d4b840"/>
  <rect x="6" y="4" width="2" height="1" fill="#FFE066"/>
  <rect x="11" y="4" width="2" height="1" fill="#FFE066"/>
  <rect x="15" y="4" width="2" height="1" fill="#FFE066"/>
  <rect x="20" y="4" width="2" height="1" fill="#FFE066"/>
  <rect x="5" y="5" width="18" height="1" fill="#d4b840"/>
  <rect x="5" y="5" width="1" height="1" fill="#9c8520"/>
  <rect x="22" y="5" width="1" height="1" fill="#9c8520"/>
  <rect x="5" y="6" width="18" height="1" fill="#d4b840"/>
  <rect x="5" y="6" width="1" height="1" fill="#9c8520"/>
  <rect x="22" y="6" width="1" height="1" fill="#9c8520"/>
  <rect x="7" y="7" width="14" height="1" fill="#2A4A8E"/>
  <rect x="7" y="7" width="14" height="1" fill="#1d3464"/>
  <rect x="7" y="8" width="14" height="1" fill="#2A4A8E"/>
  <rect x="11" y="7" width="6" height="2" fill="#9C9C9C"/>
  <rect x="12" y="8" width="4" height="1" fill="#7a7a7a"/>
  <rect x="13" y="7" width="2" height="1" fill="#cccccc"/>
  <rect x="7" y="9" width="14" height="6" fill="#fcd9b6"/>
  <rect x="6" y="9" width="1" height="5" fill="#1a1c2c"/>
  <rect x="21" y="9" width="1" height="5" fill="#1a1c2c"/>
  <rect x="9" y="11" width="3" height="2" fill="#ffffff"/>
  <rect x="16" y="11" width="3" height="2" fill="#ffffff"/>
  <rect x="10" y="11" width="2" height="2" fill="#3DA5E0"/>
  <rect x="17" y="11" width="2" height="2" fill="#3DA5E0"/>
  <rect x="11" y="12" width="1" height="1" fill="#1a1c2c"/>
  <rect x="18" y="12" width="1" height="1" fill="#1a1c2c"/>
  <rect x="8" y="13" width="2" height="1" fill="#222222"/>
  <rect x="18" y="13" width="2" height="1" fill="#222222"/>
  <rect x="11" y="14" width="6" height="1" fill="#c89878"/>
  <rect x="11" y="15" width="6" height="2" fill="#fcd9b6"/>
  <rect x="11" y="15" width="6" height="1" fill="#c89878"/>
  <rect x="8" y="17" width="12" height="10" fill="#EA7124"/>
  <rect x="8" y="17" width="3" height="10" fill="#1A1A1A"/>
  <rect x="17" y="17" width="3" height="10" fill="#1A1A1A"/>
  <rect x="8" y="17" width="12" height="1" fill="#fb923c"/>
  <rect x="13" y="18" width="2" height="8" fill="#fb923c"/>
  <rect x="11" y="19" width="2" height="1" fill="#1A1A1A"/>
  <rect x="15" y="19" width="2" height="1" fill="#1A1A1A"/>
  <rect x="11" y="22" width="2" height="1" fill="#1A1A1A"/>
  <rect x="15" y="22" width="2" height="1" fill="#1A1A1A"/>
  <rect x="5" y="18" width="3" height="9" fill="#1A1A1A"/>
  <rect x="5" y="18" width="3" height="1" fill="#3a3a3a"/>
  <rect x="20" y="18" width="3" height="9" fill="#1A1A1A"/>
  <rect x="20" y="18" width="3" height="1" fill="#3a3a3a"/>
  <rect x="4" y="27" width="4" height="2" fill="#fcd9b6"/>
  <rect x="4" y="27" width="1" height="2" fill="#e8b990"/>
  <rect x="4" y="28" width="4" height="1" fill="#c89878"/>
  <rect x="20" y="27" width="4" height="2" fill="#fcd9b6"/>
  <rect x="23" y="27" width="1" height="2" fill="#c89878"/>
  <rect x="20" y="28" width="4" height="1" fill="#c89878"/>
  <rect x="8" y="27" width="12" height="1" fill="#1A1A1A"/>
  <rect x="8" y="28" width="12" height="6" fill="#EA7124"/>
  <rect x="8" y="28" width="1" height="6" fill="#9a3412"/>
  <rect x="19" y="28" width="1" height="6" fill="#9a3412"/>
  <rect x="13" y="28" width="2" height="6" fill="#fb923c"/>
  <rect x="9" y="34" width="4" height="2" fill="#EA7124"/>
  <rect x="9" y="34" width="1" height="2" fill="#9a3412"/>
  <rect x="15" y="34" width="4" height="2" fill="#EA7124"/>
  <rect x="18" y="34" width="1" height="2" fill="#9a3412"/>
  <rect x="9" y="36" width="4" height="2" fill="#5a3a1a"/>
  <rect x="9" y="36" width="4" height="1" fill="#7c4422"/>
  <rect x="11" y="37" width="1" height="3" fill="#3d2510"/>
  <rect x="8" y="38" width="6" height="2" fill="#3d2510"/>
  <rect x="15" y="36" width="4" height="2" fill="#5a3a1a"/>
  <rect x="15" y="36" width="4" height="1" fill="#7c4422"/>
  <rect x="17" y="37" width="1" height="3" fill="#3d2510"/>
  <rect x="14" y="38" width="6" height="2" fill="#3d2510"/>
</svg>
