<svg xmlns="http://www.w3.org/2000/svg" width="16" height="24" viewBox="0 0 16 24" shape-rendering="crispEdges">
  <rect x="2" y="20" width="12" height="4" fill="#3a2840"/>
  <rect x="1" y="21" width="14" height="3" fill="#251a2a"/>
  <rect x="4" y="14" width="8" height="6" fill="#3a2840"/>
  <rect x="3" y="15" width="1" height="5" fill="#251a2a"/>
  <rect x="12" y="15" width="1" height="5" fill="#251a2a"/>
  <rect x="3" y="6" width="10" height="8" fill="#c8c0b0"/>
  <rect x="2" y="7" width="1" height="6" fill="#a89880"/>
  <rect x="13" y="7" width="1" height="6" fill="#a89880"/>
  <rect x="3" y="6" width="10" height="1" fill="#e8e0d0"/>
  <rect x="4" y="9" width="3" height="2" fill="#4ade80"/>
  <rect x="9" y="9" width="3" height="2" fill="#4ade80"/>
  <rect x="5" y="9" width="1" height="1" fill="#86efac"/>
  <rect x="10" y="9" width="1" height="1" fill="#86efac"/>
  <rect x="5" y="12" width="6" height="1" fill="#1a0a18"/>
  <rect x="5" y="13" width="1" height="1" fill="#1a0a18"/>
  <rect x="7" y="13" width="1" height="1" fill="#1a0a18"/>
  <rect x="9" y="13" width="1" height="1" fill="#1a0a18"/>
  <rect x="6" y="0" width="4" height="2" fill="#4ade80"/>
  <rect x="7" y="0" width="2" height="1" fill="#86efac"/>
  <rect x="0" y="10" width="1" height="1" fill="#4ade80"/>
  <rect x="15" y="10" width="1" height="1" fill="#4ade80"/>
  <rect x="0" y="13" width="1" height="1" fill="#4ade80"/>
  <rect x="15" y="13" width="1" height="1" fill="#4ade80"/>
</svg>
