<svg xmlns="http://www.w3.org/2000/svg" width="16" height="16" viewBox="0 0 16 16" shape-rendering="crispEdges">
  <rect x="6" y="2" width="1" height="1" fill="#5a3a1a"/>
  <rect x="9" y="2" width="1" height="1" fill="#5a3a1a"/>
  <rect x="5" y="3" width="2" height="1" fill="#1f4d2a"/>
  <rect x="9" y="3" width="2" height="1" fill="#1f4d2a"/>
  <rect x="7" y="3" width="2" height="1" fill="#3d8043"/>
  <rect x="3" y="4" width="2" height="1" fill="#1f4d2a"/>
  <rect x="11" y="4" width="2" height="1" fill="#1f4d2a"/>
  <rect x="2" y="5" width="2" height="1" fill="#5a3a1a"/>
  <rect x="12" y="5" width="2" height="1" fill="#5a3a1a"/>
  <rect x="4" y="5" width="1" height="1" fill="#1f4d2a"/>
  <rect x="11" y="5" width="1" height="1" fill="#1f4d2a"/>
  <rect x="6" y="5" width="4" height="2" fill="#3d8043"/>
  <rect x="3" y="6" width="2" height="2" fill="#1f4d2a"/>
  <rect x="11" y="6" width="2" height="2" fill="#1f4d2a"/>
  <rect x="6" y="7" width="4" height="2" fill="#1f4d2a"/>
  <rect x="7" y="7" width="2" height="2" fill="#3d8043"/>
  <rect x="2" y="8" width="2" height="1" fill="#5a3a1a"/>
  <rect x="12" y="8" width="2" height="1" fill="#5a3a1a"/>
  <rect x="3" y="9" width="2" height="1" fill="#1f4d2a"/>
  <rect x="11" y="9" width="2" height="1" fill="#1f4d2a"/>
  <rect x="6" y="9" width="4" height="1" fill="#1f4d2a"/>
  <rect x="5" y="10" width="2" height="1" fill="#1f4d2a"/>
  <rect x="9" y="10" width="2" height="1" fill="#1f4d2a"/>
  <rect x="7" y="10" width="2" height="1" fill="#3d8043"/>
  <rect x="6" y="12" width="1" height="1" fill="#5a3a1a"/>
  <rect x="9" y="12" width="1" height="1" fill="#5a3a1a"/>
</svg>
