<svg xmlns="http://www.w3.org/2000/svg" width="16" height="16" viewBox="0 0 16 16" shape-rendering="crispEdges">
  <rect x="4" y="13" width="8" height="3" fill="#3a2840"/>
  <rect x="3" y="14" width="10" height="2" fill="#251a2a"/>
  <rect x="5" y="9" width="6" height="4" fill="#3a2840"/>
  <rect x="4" y="10" width="1" height="3" fill="#251a2a"/>
  <rect x="11" y="10" width="1" height="3" fill="#251a2a"/>
  <rect x="4" y="2" width="8" height="7" fill="#c8c0b0"/>
  <rect x="3" y="3" width="1" height="5" fill="#a89880"/>
  <rect x="12" y="3" width="1" height="5" fill="#a89880"/>
  <rect x="4" y="2" width="8" height="1" fill="#e8e0d0"/>
  <rect x="5" y="4" width="2" height="2" fill="#22d3ee"/>
  <rect x="9" y="4" width="2" height="2" fill="#22d3ee"/>
  <rect x="6" y="4" width="1" height="1" fill="#67e8f9"/>
  <rect x="10" y="4" width="1" height="1" fill="#67e8f9"/>
  <rect x="6" y="7" width="4" height="1" fill="#1a0a18"/>
  <rect x="6" y="8" width="1" height="1" fill="#1a0a18"/>
  <rect x="8" y="8" width="1" height="1" fill="#1a0a18"/>
  <rect x="10" y="8" width="1" height="1" fill="#1a0a18"/>
  <rect x="2" y="6" width="1" height="1" fill="#22d3ee"/>
  <rect x="13" y="6" width="1" height="1" fill="#22d3ee"/>
</svg>
