<svg xmlns="http://www.w3.org/2000/svg" width="16" height="16" viewBox="0 0 16 16" shape-rendering="crispEdges">
  <rect x="6" y="0" width="1" height="2" fill="#1a3a4a"/>
  <rect x="9" y="0" width="1" height="2" fill="#1a3a4a"/>
  <rect x="4" y="2" width="8" height="6" fill="#2a4a5a"/>
  <rect x="3" y="3" width="1" height="4" fill="#1a3a4a"/>
  <rect x="12" y="3" width="1" height="4" fill="#1a3a4a"/>
  <rect x="5" y="4" width="1" height="1" fill="#ff4040"/>
  <rect x="10" y="4" width="1" height="1" fill="#ff4040"/>
  <rect x="5" y="6" width="1" height="2" fill="#f5f5f0"/>
  <rect x="7" y="6" width="1" height="2" fill="#f5f5f0"/>
  <rect x="9" y="6" width="1" height="2" fill="#f5f5f0"/>
  <rect x="6" y="7" width="1" height="1" fill="#1a1c2c"/>
  <rect x="8" y="7" width="1" height="1" fill="#1a1c2c"/>
  <rect x="5" y="8" width="6" height="4" fill="#1a3a4a"/>
  <rect x="6" y="9" width="4" height="2" fill="#0f2030"/>
  <rect x="3" y="9" width="1" height="2" fill="#1a3a4a"/>
  <rect x="12" y="9" width="1" height="2" fill="#1a3a4a"/>
  <rect x="6" y="12" width="4" height="2" fill="#0f2030"/>
  <rect x="7" y="14" width="2" height="2" fill="#0a1828"/>
</svg>
