<svg xmlns="http://www.w3.org/2000/svg" width="16" height="16" viewBox="0 0 16 16" shape-rendering="crispEdges">
  <rect x="3" y="5" width="10" height="6" fill="#0f0c20"/>
  <rect x="2" y="6" width="1" height="4" fill="#0a0818"/>
  <rect x="13" y="6" width="1" height="4" fill="#0a0818"/>
  <rect x="4" y="5" width="8" height="1" fill="#1a1530"/>
  <rect x="5" y="6" width="2" height="2" fill="#22d3ee"/>
  <rect x="9" y="6" width="2" height="2" fill="#22d3ee"/>
  <rect x="6" y="6" width="1" height="1" fill="#67e8f9"/>
  <rect x="10" y="6" width="1" height="1" fill="#67e8f9"/>
  <rect x="6" y="9" width="4" height="1" fill="#0a0818"/>
  <rect x="7" y="10" width="2" height="1" fill="#0a0818"/>
  <rect x="4" y="11" width="2" height="2" fill="#0f0c20"/>
  <rect x="10" y="11" width="2" height="2" fill="#0f0c20"/>
  <rect x="7" y="11" width="2" height="3" fill="#0f0c20"/>
  <rect x="4" y="13" width="1" height="1" fill="#0a0818"/>
  <rect x="11" y="13" width="1" height="1" fill="#0a0818"/>
</svg>
