<svg xmlns="http://www.w3.org/2000/svg" width="16" height="16" viewBox="0 0 16 16" shape-rendering="crispEdges">
  <rect x="2" y="4" width="12" height="9" fill="#1a2e05"/>
  <rect x="3" y="3" width="10" height="11" fill="#365314"/>
  <rect x="4" y="2" width="8" height="13" fill="#4d7c0f"/>
  <rect x="5" y="5" width="6" height="6" fill="#65a30d"/>
  <rect x="6" y="6" width="2" height="2" fill="#1a1c2c"/>
  <rect x="8" y="6" width="2" height="2" fill="#1a1c2c"/>
  <rect x="6" y="9" width="4" height="1" fill="#1a1c2c"/>
  <rect x="3" y="3" width="2" height="2" fill="#84cc16"/>
  <rect x="11" y="3" width="2" height="2" fill="#84cc16"/>
  <rect x="3" y="11" width="2" height="2" fill="#84cc16"/>
  <rect x="11" y="11" width="2" height="2" fill="#84cc16"/>
  <rect x="7" y="2" width="2" height="1" fill="#84cc16"/>
  <rect x="7" y="13" width="2" height="1" fill="#84cc16"/>
  <rect x="2" y="7" width="1" height="2" fill="#84cc16"/>
  <rect x="13" y="7" width="1" height="2" fill="#84cc16"/>
</svg>
