<svg xmlns="http://www.w3.org/2000/svg" width="16" height="16" viewBox="0 0 16 16" shape-rendering="crispEdges">
  <rect x="2" y="3" width="5" height="10" fill="#d4b896"/>
  <rect x="2" y="3" width="5" height="1" fill="#e8cc9c"/>
  <rect x="2" y="12" width="5" height="1" fill="#a89478"/>
  <rect x="9" y="3" width="5" height="10" fill="#d4b896"/>
  <rect x="9" y="3" width="5" height="1" fill="#e8cc9c"/>
  <rect x="9" y="12" width="5" height="1" fill="#a89478"/>
  <rect x="7" y="2" width="2" height="12" fill="#4a2e1a"/>
  <rect x="3" y="5" width="3" height="1" fill="#8a7058"/>
  <rect x="3" y="7" width="3" height="1" fill="#8a7058"/>
  <rect x="3" y="9" width="3" height="1" fill="#8a7058"/>
  <rect x="10" y="5" width="3" height="1" fill="#8a7058"/>
  <rect x="10" y="7" width="3" height="1" fill="#8a7058"/>
  <rect x="10" y="9" width="3" height="1" fill="#8a7058"/>
  <rect x="7" y="6" width="2" height="1" fill="#ff6b6b"/>
  <rect x="7" y="9" width="2" height="1" fill="#ff6b6b"/>
  <rect x="1" y="3" width="1" height="2" fill="#fbbf24"/>
  <rect x="14" y="3" width="1" height="2" fill="#fbbf24"/>
  <rect x="1" y="11" width="1" height="2" fill="#fbbf24"/>
  <rect x="14" y="11" width="1" height="2" fill="#fbbf24"/>
</svg>
