<svg xmlns="http://www.w3.org/2000/svg" width="16" height="16" viewBox="0 0 16 16" shape-rendering="crispEdges">
  <rect x="5" y="1" width="6" height="2" fill="#1a0a18"/>
  <rect x="4" y="2" width="8" height="3" fill="#3a1f3a"/>
  <rect x="6" y="3" width="1" height="1" fill="#ff40ff"/>
  <rect x="9" y="3" width="1" height="1" fill="#ff40ff"/>
  <rect x="7" y="3" width="1" height="1" fill="#ff80ff"/>
  <rect x="10" y="3" width="0" height="0" fill="#ff80ff"/>
  <rect x="3" y="5" width="10" height="6" fill="#3a1f3a"/>
  <rect x="2" y="6" width="1" height="4" fill="#251a2a"/>
  <rect x="13" y="6" width="1" height="4" fill="#251a2a"/>
  <rect x="4" y="6" width="8" height="3" fill="#5a2f5a"/>
  <rect x="5" y="7" width="6" height="1" fill="#7a3f7a"/>
  <rect x="3" y="11" width="2" height="2" fill="#251a2a"/>
  <rect x="11" y="11" width="2" height="2" fill="#251a2a"/>
  <rect x="5" y="11" width="2" height="3" fill="#3a1f3a"/>
  <rect x="9" y="11" width="2" height="3" fill="#3a1f3a"/>
  <rect x="2" y="13" width="3" height="2" fill="#1a0a18"/>
  <rect x="11" y="13" width="3" height="2" fill="#1a0a18"/>
  <rect x="5" y="14" width="6" height="2" fill="#1a0a18"/>
  <rect x="6" y="15" width="1" height="1" fill="#ff40ff"/>
  <rect x="9" y="15" width="1" height="1" fill="#ff40ff"/>
</svg>
