<svg xmlns="http://www.w3.org/2000/svg" width="16" height="16" viewBox="0 0 16 16" shape-rendering="crispEdges">
  <rect x="5" y="3" width="6" height="10" fill="#7c2d12"/>
  <rect x="4" y="5" width="8" height="6" fill="#92400e"/>
  <rect x="5" y="4" width="6" height="1" fill="#a16207"/>
  <rect x="6" y="6" width="2" height="2" fill="#fef08a"/>
  <rect x="9" y="6" width="2" height="2" fill="#fef08a"/>
  <rect x="6" y="6" width="1" height="1" fill="#dc2626"/>
  <rect x="10" y="6" width="1" height="1" fill="#dc2626"/>
  <rect x="6" y="10" width="4" height="1" fill="#1a1c2c"/>
  <rect x="3" y="6" width="1" height="1" fill="#365314"/>
  <rect x="3" y="9" width="1" height="1" fill="#365314"/>
  <rect x="12" y="6" width="1" height="1" fill="#365314"/>
  <rect x="12" y="9" width="1" height="1" fill="#365314"/>
  <rect x="6" y="12" width="1" height="3" fill="#365314"/>
  <rect x="9" y="12" width="1" height="3" fill="#365314"/>
  <rect x="7" y="0" width="2" height="2" fill="#dc2626"/>
  <rect x="6" y="1" width="4" height="1" fill="#f97316"/>
</svg>
