<svg xmlns="http://www.w3.org/2000/svg" width="16" height="16" viewBox="0 0 16 16" shape-rendering="crispEdges">
  <rect x="7" y="0" width="2" height="2" fill="#5a3a1a"/>
  <rect x="6" y="1" width="4" height="1" fill="#3a2510"/>
  <rect x="5" y="2" width="6" height="1" fill="#1a0a18"/>
  <rect x="4" y="3" width="8" height="9" fill="#251a2a"/>
  <rect x="3" y="4" width="1" height="7" fill="#1a0a18"/>
  <rect x="12" y="4" width="1" height="7" fill="#1a0a18"/>
  <rect x="5" y="4" width="6" height="7" fill="#4ade80"/>
  <rect x="6" y="5" width="4" height="5" fill="#86efac"/>
  <rect x="7" y="6" width="2" height="3" fill="#bbf7d0"/>
  <rect x="6" y="6" width="1" height="1" fill="#1a1c2c"/>
  <rect x="9" y="6" width="1" height="1" fill="#1a1c2c"/>
  <rect x="7" y="8" width="2" height="1" fill="#1a1c2c"/>
  <rect x="4" y="12" width="8" height="2" fill="#3a2840"/>
  <rect x="5" y="14" width="2" height="2" fill="#1a0a18"/>
  <rect x="9" y="14" width="2" height="2" fill="#1a0a18"/>
  <rect x="2" y="6" width="1" height="2" fill="#86efac"/>
  <rect x="13" y="6" width="1" height="2" fill="#86efac"/>
  <rect x="2" y="9" width="1" height="2" fill="#86efac"/>
  <rect x="13" y="9" width="1" height="2" fill="#86efac"/>
</svg>
