<svg xmlns="http://www.w3.org/2000/svg" width="16" height="16" viewBox="0 0 16 16" shape-rendering="crispEdges">
  <rect x="4" y="2" width="8" height="3" fill="#581c87"/>
  <rect x="3" y="3" width="10" height="3" fill="#7c3aed"/>
  <rect x="2" y="4" width="12" height="3" fill="#a855f7"/>
  <rect x="3" y="6" width="10" height="2" fill="#7c3aed"/>
  <rect x="5" y="3" width="2" height="1" fill="#e9d5ff"/>
  <rect x="9" y="3" width="2" height="1" fill="#e9d5ff"/>
  <rect x="6" y="8" width="4" height="4" fill="#fcd9b6"/>
  <rect x="7" y="8" width="2" height="2" fill="#1a1c2c"/>
  <rect x="6" y="11" width="4" height="1" fill="#1a1c2c"/>
  <rect x="5" y="12" width="2" height="3" fill="#581c87"/>
  <rect x="9" y="12" width="2" height="3" fill="#581c87"/>
  <rect x="0" y="2" width="2" height="1" fill="#a855f7"/>
  <rect x="14" y="2" width="2" height="1" fill="#a855f7"/>
  <rect x="0" y="5" width="1" height="1" fill="#a855f7"/>
  <rect x="15" y="5" width="1" height="1" fill="#a855f7"/>
</svg>
