<svg xmlns="http://www.w3.org/2000/svg" width="16" height="16" viewBox="0 0 16 16" shape-rendering="crispEdges">
  <rect x="6" y="1" width="4" height="2" fill="#1a2540"/>
  <rect x="5" y="3" width="6" height="2" fill="#22304a"/>
  <rect x="6" y="5" width="1" height="1" fill="#fef08a"/>
  <rect x="9" y="5" width="1" height="1" fill="#fef08a"/>
  <rect x="7" y="5" width="2" height="1" fill="#1a1c2c"/>
  <rect x="5" y="6" width="6" height="3" fill="#2a3a5a"/>
  <rect x="4" y="7" width="1" height="2" fill="#1a2540"/>
  <rect x="11" y="7" width="1" height="2" fill="#1a2540"/>
  <rect x="2" y="8" width="2" height="1" fill="#5a3a1a"/>
  <rect x="12" y="8" width="2" height="1" fill="#5a3a1a"/>
  <rect x="1" y="7" width="1" height="3" fill="#3d2510"/>
  <rect x="14" y="7" width="1" height="3" fill="#3d2510"/>
  <rect x="6" y="9" width="4" height="3" fill="#22304a"/>
  <rect x="6" y="12" width="2" height="2" fill="#1a2540"/>
  <rect x="8" y="12" width="2" height="2" fill="#1a2540"/>
  <rect x="7" y="14" width="1" height="2" fill="#0e1830"/>
  <rect x="9" y="14" width="1" height="2" fill="#0e1830"/>
</svg>
