<svg xmlns="http://www.w3.org/2000/svg" width="16" height="16" viewBox="0 0 16 16" shape-rendering="crispEdges">
  <rect x="6" y="2" width="4" height="2" fill="#365314"/>
  <rect x="5" y="4" width="6" height="3" fill="#4d7c0f"/>
  <rect x="4" y="6" width="8" height="6" fill="#65a30d"/>
  <rect x="5" y="12" width="6" height="2" fill="#4d7c0f"/>
  <rect x="6" y="14" width="4" height="2" fill="#365314"/>
  <rect x="6" y="6" width="2" height="2" fill="#1a1c2c"/>
  <rect x="9" y="6" width="2" height="2" fill="#1a1c2c"/>
  <rect x="7" y="7" width="1" height="1" fill="#fef08a"/>
  <rect x="10" y="7" width="1" height="1" fill="#fef08a"/>
  <rect x="6" y="10" width="4" height="1" fill="#1a1c2c"/>
  <rect x="0" y="7" width="4" height="1" fill="#365314"/>
  <rect x="2" y="6" width="2" height="1" fill="#65a30d"/>
  <rect x="2" y="9" width="2" height="1" fill="#65a30d"/>
  <rect x="0" y="9" width="4" height="1" fill="#365314"/>
  <rect x="12" y="7" width="4" height="1" fill="#365314"/>
  <rect x="12" y="6" width="2" height="1" fill="#65a30d"/>
  <rect x="12" y="9" width="2" height="1" fill="#65a30d"/>
  <rect x="12" y="9" width="4" height="1" fill="#365314"/>
</svg>
