<svg xmlns="http://www.w3.org/2000/svg" width="28" height="40" viewBox="0 0 28 40" shape-rendering="crispEdges">
  <rect x="9" y="2" width="10" height="1" fill="#0E0E0E"/>
  <rect x="8" y="3" width="12" height="1" fill="#0E0E0E"/>
  <rect x="7" y="4" width="14" height="1" fill="#0E0E0E"/>
  <rect x="7" y="5" width="14" height="2" fill="#0E0E0E"/>
  <rect x="7" y="5" width="14" height="1" fill="#1f1f1f"/>
  <rect x="7" y="7" width="14" height="1" fill="#0E0E0E"/>
  <rect x="7" y="8" width="14" height="7" fill="#fcd9b6"/>
  <rect x="6" y="8" width="1" height="6" fill="#0E0E0E"/>
  <rect x="21" y="8" width="1" height="6" fill="#0E0E0E"/>
  <rect x="7" y="8" width="3" height="1" fill="#0E0E0E"/>
  <rect x="11" y="8" width="2" height="1" fill="#0E0E0E"/>
  <rect x="15" y="8" width="2" height="1" fill="#0E0E0E"/>
  <rect x="18" y="8" width="3" height="1" fill="#0E0E0E"/>
  <rect x="9" y="10" width="3" height="1" fill="#0E0E0E"/>
  <rect x="16" y="10" width="3" height="1" fill="#0E0E0E"/>
  <rect x="9" y="11" width="3" height="2" fill="#ffffff"/>
  <rect x="16" y="11" width="3" height="2" fill="#ffffff"/>
  <rect x="10" y="11" width="2" height="2" fill="#7A8088"/>
  <rect x="17" y="11" width="2" height="2" fill="#7A8088"/>
  <rect x="11" y="12" width="1" height="1" fill="#1a1c2c"/>
  <rect x="18" y="12" width="1" height="1" fill="#1a1c2c"/>
  <rect x="13" y="13" width="2" height="2" fill="#e8b990"/>
  <rect x="11" y="14" width="6" height="1" fill="#a07050"/>
  <rect x="11" y="15" width="6" height="2" fill="#fcd9b6"/>
  <rect x="11" y="15" width="6" height="1" fill="#c89878"/>
  <rect x="9" y="17" width="10" height="1" fill="#F0EDE3"/>
  <rect x="9" y="18" width="10" height="3" fill="#F0EDE3"/>
  <rect x="11" y="18" width="6" height="3" fill="#F0EDE3"/>
  <rect x="12" y="17" width="4" height="2" fill="#ffffff"/>
  <rect x="11" y="18" width="6" height="1" fill="#cccccc"/>
  <rect x="13" y="20" width="2" height="1" fill="#cccccc"/>
  <rect x="6" y="20" width="16" height="9" fill="#7A6346"/>
  <rect x="6" y="20" width="16" height="1" fill="#9c8054"/>
  <rect x="6" y="20" width="2" height="9" fill="#5a4828"/>
  <rect x="20" y="20" width="2" height="9" fill="#5a4828"/>
  <rect x="5" y="22" width="18" height="6" fill="#2E5B3E"/>
  <rect x="5" y="22" width="18" height="1" fill="#3a7050"/>
  <rect x="5" y="22" width="2" height="6" fill="#1a3a28"/>
  <rect x="21" y="22" width="2" height="6" fill="#1a3a28"/>
  <rect x="9" y="20" width="1" height="8" fill="#3A2A1A"/>
  <rect x="13" y="20" width="1" height="8" fill="#3A2A1A"/>
  <rect x="17" y="20" width="1" height="8" fill="#3A2A1A"/>
  <rect x="3" y="18" width="3" height="6" fill="#C8CCD0"/>
  <rect x="3" y="18" width="3" height="1" fill="#e8eaec"/>
  <rect x="3" y="23" width="3" height="1" fill="#7c8084"/>
  <rect x="22" y="22" width="3" height="6" fill="#C8CCD0"/>
  <rect x="22" y="27" width="3" height="1" fill="#e8eaec"/>
  <rect x="22" y="22" width="3" height="1" fill="#7c8084"/>
  <rect x="6" y="29" width="16" height="1" fill="#5a4828"/>
  <rect x="8" y="30" width="12" height="5" fill="#5a4828"/>
  <rect x="8" y="30" width="1" height="5" fill="#3d2510"/>
  <rect x="19" y="30" width="1" height="5" fill="#3d2510"/>
  <rect x="13" y="30" width="2" height="5" fill="#7c5838"/>
  <rect x="9" y="35" width="4" height="2" fill="#5a4828"/>
  <rect x="15" y="35" width="4" height="2" fill="#5a4828"/>
  <rect x="8" y="37" width="5" height="3" fill="#1a0a05"/>
  <rect x="8" y="37" width="5" height="1" fill="#3d2510"/>
  <rect x="7" y="39" width="6" height="1" fill="#0a0502"/>
  <rect x="15" y="37" width="5" height="3" fill="#1a0a05"/>
  <rect x="15" y="37" width="5" height="1" fill="#3d2510"/>
  <rect x="15" y="39" width="6" height="1" fill="#0a0502"/>
</svg>
