<svg xmlns="http://www.w3.org/2000/svg" width="28" height="40" viewBox="0 0 28 40" shape-rendering="crispEdges">
  <rect x="9" y="1" width="10" height="1" fill="#5A1F1A"/>
  <rect x="11" y="0" width="2" height="1" fill="#5A1F1A"/>
  <rect x="14" y="0" width="3" height="1" fill="#5A1F1A"/>
  <rect x="8" y="2" width="12" height="1" fill="#5A1F1A"/>
  <rect x="7" y="3" width="14" height="1" fill="#5A1F1A"/>
  <rect x="7" y="4" width="14" height="2" fill="#5A1F1A"/>
  <rect x="6" y="5" width="16" height="1" fill="#5A1F1A"/>
  <rect x="6" y="6" width="2" height="2" fill="#3a0f0a"/>
  <rect x="20" y="6" width="2" height="2" fill="#3a0f0a"/>
  <rect x="8" y="6" width="12" height="2" fill="#5A1F1A"/>
  <rect x="7" y="8" width="14" height="8" fill="#fcd9b6"/>
  <rect x="6" y="8" width="1" height="6" fill="#5A1F1A"/>
  <rect x="21" y="8" width="1" height="6" fill="#5A1F1A"/>
  <rect x="11" y="9" width="2" height="1" fill="#6E1B12"/>
  <rect x="6" y="11" width="1" height="1" fill="#F5E8C2"/>
  <rect x="6" y="12" width="1" height="1" fill="#B83A2E"/>
  <rect x="21" y="11" width="1" height="1" fill="#F5E8C2"/>
  <rect x="21" y="12" width="1" height="1" fill="#B83A2E"/>
  <rect x="9" y="10" width="3" height="1" fill="#1a1c2c"/>
  <rect x="16" y="10" width="3" height="1" fill="#1a1c2c"/>
  <rect x="9" y="11" width="3" height="2" fill="#ffffff"/>
  <rect x="16" y="11" width="3" height="2" fill="#ffffff"/>
  <rect x="10" y="11" width="2" height="2" fill="#A02222"/>
  <rect x="17" y="11" width="2" height="2" fill="#A02222"/>
  <rect x="11" y="12" width="1" height="1" fill="#1a1c2c"/>
  <rect x="18" y="12" width="1" height="1" fill="#1a1c2c"/>
  <rect x="11" y="15" width="6" height="1" fill="#a07050"/>
  <rect x="11" y="16" width="6" height="2" fill="#fcd9b6"/>
  <rect x="8" y="18" width="12" height="10" fill="#2A1F18"/>
  <rect x="8" y="18" width="2" height="10" fill="#1a0f08"/>
  <rect x="18" y="18" width="2" height="10" fill="#1a0f08"/>
  <rect x="6" y="19" width="2" height="2" fill="#1E5E3A"/>
  <rect x="6" y="21" width="2" height="2" fill="#0E0E0E"/>
  <rect x="6" y="23" width="2" height="2" fill="#1E5E3A"/>
  <rect x="6" y="25" width="2" height="3" fill="#0E0E0E"/>
  <rect x="20" y="19" width="2" height="2" fill="#1E5E3A"/>
  <rect x="20" y="21" width="2" height="2" fill="#0E0E0E"/>
  <rect x="20" y="23" width="2" height="2" fill="#1E5E3A"/>
  <rect x="20" y="25" width="2" height="3" fill="#0E0E0E"/>
  <rect x="8" y="19" width="2" height="2" fill="#0E0E0E"/>
  <rect x="10" y="19" width="2" height="2" fill="#1E5E3A"/>
  <rect x="16" y="19" width="2" height="2" fill="#1E5E3A"/>
  <rect x="18" y="19" width="2" height="2" fill="#0E0E0E"/>
  <rect x="8" y="21" width="2" height="2" fill="#1E5E3A"/>
  <rect x="10" y="21" width="2" height="2" fill="#0E0E0E"/>
  <rect x="16" y="21" width="2" height="2" fill="#0E0E0E"/>
  <rect x="18" y="21" width="2" height="2" fill="#1E5E3A"/>
  <rect x="8" y="23" width="2" height="2" fill="#0E0E0E"/>
  <rect x="10" y="23" width="2" height="2" fill="#1E5E3A"/>
  <rect x="16" y="23" width="2" height="2" fill="#1E5E3A"/>
  <rect x="18" y="23" width="2" height="2" fill="#0E0E0E"/>
  <rect x="8" y="25" width="2" height="3" fill="#1E5E3A"/>
  <rect x="10" y="25" width="2" height="3" fill="#0E0E0E"/>
  <rect x="16" y="25" width="2" height="3" fill="#0E0E0E"/>
  <rect x="18" y="25" width="2" height="3" fill="#1E5E3A"/>
  <rect x="3" y="20" width="1" height="14" fill="#0A0A0A"/>
  <rect x="2" y="18" width="3" height="2" fill="#FFFFFF"/>
  <rect x="4" y="29" width="3" height="2" fill="#fcd9b6"/>
  <rect x="20" y="29" width="3" height="2" fill="#fcd9b6"/>
  <rect x="8" y="28" width="12" height="6" fill="#2A1F18"/>
  <rect x="8" y="28" width="1" height="6" fill="#1a0f08"/>
  <rect x="19" y="28" width="1" height="6" fill="#1a0f08"/>
  <rect x="9" y="32" width="4" height="2" fill="#2A1F18"/>
  <rect x="15" y="34" width="4" height="2" fill="#2A1F18"/>
  <rect x="8" y="34" width="5" height="3" fill="#3d2510"/>
  <rect x="8" y="34" width="5" height="1" fill="#5a3a1a"/>
  <rect x="7" y="37" width="6" height="1" fill="#1a0a05"/>
  <rect x="15" y="36" width="5" height="3" fill="#3d2510"/>
  <rect x="15" y="36" width="5" height="1" fill="#5a3a1a"/>
  <rect x="15" y="39" width="6" height="1" fill="#1a0a05"/>
</svg>
