<svg xmlns="http://www.w3.org/2000/svg" width="24" height="32" viewBox="0 0 24 32" shape-rendering="crispEdges">
  <rect x="2" y="2" width="20" height="28" fill="#5a4528"/>
  <rect x="2" y="2" width="20" height="1" fill="#7a5a35"/>
  <rect x="2" y="29" width="20" height="1" fill="#3a2d1a"/>
  <rect x="2" y="2" width="1" height="28" fill="#3a2d1a"/>
  <rect x="21" y="2" width="1" height="28" fill="#3a2d1a"/>
  <rect x="3" y="3" width="18" height="6" fill="#3a2d1a"/>
  <rect x="3" y="11" width="18" height="6" fill="#3a2d1a"/>
  <rect x="3" y="19" width="18" height="6" fill="#3a2d1a"/>
  <rect x="4" y="4" width="2" height="4" fill="#dc2626"/>
  <rect x="7" y="4" width="2" height="4" fill="#2563eb"/>
  <rect x="10" y="4" width="2" height="4" fill="#16a34a"/>
  <rect x="13" y="4" width="2" height="4" fill="#fbbf24"/>
  <rect x="16" y="4" width="2" height="4" fill="#7c3aed"/>
  <rect x="4" y="12" width="2" height="4" fill="#2563eb"/>
  <rect x="7" y="12" width="2" height="4" fill="#dc2626"/>
  <rect x="10" y="12" width="2" height="4" fill="#fbbf24"/>
  <rect x="13" y="12" width="2" height="4" fill="#16a34a"/>
  <rect x="16" y="12" width="2" height="4" fill="#94a3b8"/>
  <rect x="4" y="20" width="2" height="4" fill="#16a34a"/>
  <rect x="7" y="20" width="2" height="4" fill="#7c3aed"/>
  <rect x="10" y="20" width="2" height="4" fill="#dc2626"/>
  <rect x="13" y="20" width="2" height="4" fill="#2563eb"/>
  <rect x="16" y="20" width="2" height="4" fill="#fbbf24"/>
</svg>
