<svg xmlns="http://www.w3.org/2000/svg" width="16" height="16" viewBox="0 0 16 16" shape-rendering="crispEdges">
  <rect x="1" y="2" width="14" height="12" fill="#3a1a0a"/>
  <rect x="1" y="2" width="14" height="1" fill="#5a3a1a"/>
  <rect x="1" y="13" width="14" height="1" fill="#1a0a05"/>
  <rect x="2" y="3" width="6" height="10" fill="#d4b896"/>
  <rect x="8" y="3" width="6" height="10" fill="#d4b896"/>
  <rect x="2" y="3" width="6" height="1" fill="#e8cc9c"/>
  <rect x="8" y="3" width="6" height="1" fill="#e8cc9c"/>
  <rect x="7" y="2" width="2" height="12" fill="#2a1505"/>
  <rect x="7" y="2" width="2" height="1" fill="#5a3a1a"/>
  <rect x="6" y="6" width="4" height="3" fill="#ff6b6b"/>
  <rect x="7" y="7" width="2" height="1" fill="#fbbf24"/>
  <rect x="0" y="1" width="1" height="1" fill="#888888"/>
  <rect x="15" y="1" width="1" height="1" fill="#888888"/>
  <rect x="0" y="14" width="1" height="1" fill="#888888"/>
  <rect x="15" y="14" width="1" height="1" fill="#888888"/>
  <rect x="0" y="6" width="1" height="2" fill="#5a5a5a"/>
  <rect x="15" y="6" width="1" height="2" fill="#5a5a5a"/>
  <rect x="3" y="6" width="1" height="1" fill="#ff4040"/>
  <rect x="12" y="6" width="1" height="1" fill="#ff4040"/>
  <rect x="3" y="9" width="1" height="1" fill="#ff4040"/>
  <rect x="12" y="9" width="1" height="1" fill="#ff4040"/>
</svg>
