<svg xmlns="http://www.w3.org/2000/svg" width="16" height="16" viewBox="0 0 16 16" shape-rendering="crispEdges">
  <rect x="5" y="0" width="6" height="2" fill="#0a1828"/>
  <rect x="4" y="1" width="8" height="2" fill="#1a3a4a"/>
  <rect x="4" y="3" width="8" height="2" fill="#2a4a5a"/>
  <rect x="5" y="3" width="2" height="1" fill="#22d3ee"/>
  <rect x="9" y="3" width="2" height="1" fill="#22d3ee"/>
  <rect x="6" y="3" width="1" height="1" fill="#67e8f9"/>
  <rect x="10" y="3" width="1" height="1" fill="#67e8f9"/>
  <rect x="6" y="5" width="4" height="1" fill="#1a3a4a"/>
  <rect x="5" y="5" width="1" height="2" fill="#1a3a4a"/>
  <rect x="10" y="5" width="1" height="2" fill="#1a3a4a"/>
  <rect x="3" y="5" width="2" height="3" fill="#0a1828"/>
  <rect x="11" y="5" width="2" height="3" fill="#0a1828"/>
  <rect x="2" y="6" width="1" height="2" fill="#0a1828"/>
  <rect x="13" y="6" width="1" height="2" fill="#0a1828"/>
  <rect x="4" y="6" width="8" height="7" fill="#1a2a40"/>
  <rect x="5" y="7" width="6" height="5" fill="#22304a"/>
  <rect x="7" y="8" width="2" height="2" fill="#fbbf24"/>
  <rect x="7" y="8" width="1" height="1" fill="#fef08a"/>
  <rect x="5" y="11" width="6" height="1" fill="#5a3a1a"/>
  <rect x="4" y="13" width="8" height="2" fill="#0a1828"/>
  <rect x="5" y="15" width="2" height="1" fill="#050a18"/>
  <rect x="9" y="15" width="2" height="1" fill="#050a18"/>
</svg>
