<svg xmlns="http://www.w3.org/2000/svg" width="16" height="16" viewBox="0 0 16 16" shape-rendering="crispEdges">
  <rect x="2" y="2" width="12" height="12" fill="#3a2840"/>
  <rect x="2" y="2" width="12" height="1" fill="#5a3a55"/>
  <rect x="2" y="13" width="12" height="1" fill="#1a0a18"/>
  <rect x="1" y="3" width="1" height="10" fill="#251a2a"/>
  <rect x="14" y="3" width="1" height="10" fill="#251a2a"/>
  <rect x="3" y="3" width="10" height="10" fill="#251a2a"/>
  <rect x="4" y="4" width="8" height="8" fill="#3a2840"/>
  <rect x="5" y="5" width="6" height="6" fill="#1a0a18"/>
  <rect x="6" y="6" width="4" height="4" fill="#ff40ff"/>
  <rect x="7" y="7" width="2" height="2" fill="#ff80ff"/>
  <rect x="2" y="2" width="2" height="2" fill="#fbbf24"/>
  <rect x="12" y="2" width="2" height="2" fill="#fbbf24"/>
  <rect x="2" y="12" width="2" height="2" fill="#fbbf24"/>
  <rect x="12" y="12" width="2" height="2" fill="#fbbf24"/>
  <rect x="0" y="7" width="1" height="2" fill="#c8c0b0"/>
  <rect x="15" y="7" width="1" height="2" fill="#c8c0b0"/>
  <rect x="7" y="0" width="2" height="2" fill="#c8c0b0"/>
  <rect x="7" y="14" width="2" height="2" fill="#c8c0b0"/>
</svg>
