<svg xmlns="http://www.w3.org/2000/svg" width="16" height="16" viewBox="0 0 16 16" shape-rendering="crispEdges">
  <rect x="5" y="0" width="6" height="2" fill="#1a0a18"/>
  <rect x="4" y="1" width="8" height="2" fill="#3a2840"/>
  <rect x="3" y="3" width="10" height="3" fill="#c8c0b0"/>
  <rect x="2" y="4" width="1" height="2" fill="#a89880"/>
  <rect x="13" y="4" width="1" height="2" fill="#a89880"/>
  <rect x="4" y="4" width="2" height="1" fill="#4ade80"/>
  <rect x="10" y="4" width="2" height="1" fill="#4ade80"/>
  <rect x="5" y="4" width="1" height="1" fill="#86efac"/>
  <rect x="11" y="4" width="1" height="1" fill="#86efac"/>
  <rect x="6" y="6" width="4" height="1" fill="#1a0a18"/>
  <rect x="3" y="7" width="10" height="7" fill="#251a2a"/>
  <rect x="2" y="8" width="1" height="5" fill="#1a0a18"/>
  <rect x="13" y="8" width="1" height="5" fill="#1a0a18"/>
  <rect x="4" y="7" width="8" height="6" fill="#3a2840"/>
  <rect x="5" y="8" width="6" height="4" fill="#5a3a55"/>
  <rect x="6" y="9" width="4" height="3" fill="#4ade80"/>
  <rect x="7" y="10" width="2" height="1" fill="#bbf7d0"/>
  <rect x="5" y="12" width="6" height="1" fill="#fbbf24"/>
  <rect x="4" y="13" width="8" height="2" fill="#1a0a18"/>
  <rect x="5" y="15" width="2" height="1" fill="#0a060a"/>
  <rect x="9" y="15" width="2" height="1" fill="#0a060a"/>
  <rect x="0" y="6" width="2" height="1" fill="#4ade80"/>
  <rect x="14" y="6" width="2" height="1" fill="#4ade80"/>
</svg>
