<svg xmlns="http://www.w3.org/2000/svg" width="16" height="16" viewBox="0 0 16 16" shape-rendering="crispEdges">
  <rect x="2" y="3" width="12" height="10" fill="#0a0818"/>
  <rect x="3" y="2" width="10" height="1" fill="#0f0c20"/>
  <rect x="3" y="13" width="10" height="1" fill="#1a1530"/>
  <rect x="4" y="3" width="8" height="1" fill="#2a2540"/>
  <rect x="3" y="5" width="2" height="2" fill="#22d3ee"/>
  <rect x="11" y="5" width="2" height="2" fill="#22d3ee"/>
  <rect x="6" y="4" width="2" height="2" fill="#22d3ee"/>
  <rect x="8" y="4" width="2" height="2" fill="#22d3ee"/>
  <rect x="3" y="5" width="1" height="1" fill="#67e8f9"/>
  <rect x="11" y="5" width="1" height="1" fill="#67e8f9"/>
  <rect x="6" y="4" width="1" height="1" fill="#67e8f9"/>
  <rect x="8" y="4" width="1" height="1" fill="#67e8f9"/>
  <rect x="5" y="8" width="6" height="3" fill="#000000"/>
  <rect x="6" y="9" width="1" height="1" fill="#ff4040"/>
  <rect x="9" y="9" width="1" height="1" fill="#ff4040"/>
  <rect x="3" y="14" width="2" height="2" fill="#0f0c20"/>
  <rect x="11" y="14" width="2" height="2" fill="#0f0c20"/>
  <rect x="7" y="14" width="2" height="2" fill="#0f0c20"/>
</svg>
