<svg xmlns="http://www.w3.org/2000/svg" width="16" height="16" viewBox="0 0 16 16" shape-rendering="crispEdges">
  <rect x="6" y="0" width="4" height="1" fill="#3a2840"/>
  <rect x="4" y="1" width="8" height="1" fill="#251a2a"/>
  <rect x="3" y="2" width="10" height="5" fill="#c8c0b0"/>
  <rect x="2" y="3" width="1" height="3" fill="#a89880"/>
  <rect x="13" y="3" width="1" height="3" fill="#a89880"/>
  <rect x="3" y="2" width="10" height="1" fill="#e8e0d0"/>
  <rect x="4" y="4" width="3" height="2" fill="#ff4040"/>
  <rect x="9" y="4" width="3" height="2" fill="#ff4040"/>
  <rect x="5" y="4" width="1" height="1" fill="#ff8080"/>
  <rect x="10" y="4" width="1" height="1" fill="#ff8080"/>
  <rect x="6" y="6" width="4" height="1" fill="#1a0a18"/>
  <rect x="3" y="7" width="10" height="6" fill="#3a2840"/>
  <rect x="2" y="8" width="1" height="4" fill="#251a2a"/>
  <rect x="13" y="8" width="1" height="4" fill="#251a2a"/>
  <rect x="4" y="8" width="8" height="3" fill="#5a4a40"/>
  <rect x="5" y="9" width="6" height="1" fill="#7a6a55"/>
  <rect x="0" y="9" width="3" height="2" fill="#c8c0b0"/>
  <rect x="13" y="9" width="3" height="2" fill="#c8c0b0"/>
  <rect x="0" y="10" width="2" height="1" fill="#a89880"/>
  <rect x="14" y="10" width="2" height="1" fill="#a89880"/>
  <rect x="4" y="13" width="8" height="2" fill="#251a2a"/>
  <rect x="5" y="15" width="2" height="1" fill="#0a060a"/>
  <rect x="9" y="15" width="2" height="1" fill="#0a060a"/>
</svg>
