<svg xmlns="http://www.w3.org/2000/svg" width="16" height="16" viewBox="0 0 16 16" shape-rendering="crispEdges">
  <rect x="5" y="0" width="6" height="2" fill="#3a2840"/>
  <rect x="4" y="1" width="8" height="2" fill="#251a2a"/>
  <rect x="3" y="3" width="10" height="6" fill="#c8c0b0"/>
  <rect x="2" y="4" width="1" height="4" fill="#a89880"/>
  <rect x="13" y="4" width="1" height="4" fill="#a89880"/>
  <rect x="3" y="3" width="10" height="1" fill="#e8e0d0"/>
  <rect x="4" y="5" width="3" height="2" fill="#22d3ee"/>
  <rect x="9" y="5" width="3" height="2" fill="#22d3ee"/>
  <rect x="5" y="5" width="1" height="1" fill="#67e8f9"/>
  <rect x="10" y="5" width="1" height="1" fill="#67e8f9"/>
  <rect x="6" y="8" width="4" height="1" fill="#1a0a18"/>
  <rect x="6" y="9" width="1" height="1" fill="#1a0a18"/>
  <rect x="9" y="9" width="1" height="1" fill="#1a0a18"/>
  <rect x="3" y="9" width="10" height="5" fill="#3a2840"/>
  <rect x="2" y="10" width="1" height="4" fill="#251a2a"/>
  <rect x="13" y="10" width="1" height="4" fill="#251a2a"/>
  <rect x="4" y="10" width="8" height="3" fill="#5a3a55"/>
  <rect x="6" y="11" width="4" height="2" fill="#fbbf24"/>
  <rect x="7" y="11" width="2" height="1" fill="#fef08a"/>
  <rect x="4" y="14" width="8" height="2" fill="#1a0a18"/>
  <rect x="0" y="6" width="2" height="1" fill="#22d3ee"/>
  <rect x="14" y="6" width="2" height="1" fill="#22d3ee"/>
</svg>
