<svg xmlns="http://www.w3.org/2000/svg" width="32" height="32" viewBox="0 0 32 32" shape-rendering="crispEdges">
  <rect x="8" y="6" width="16" height="1" fill="#1a1c2c"/>
  <rect x="6" y="7" width="20" height="1" fill="#1a1c2c"/>
  <rect x="5" y="8" width="22" height="12" fill="#5b9eef"/>
  <rect x="6" y="20" width="20" height="1" fill="#1a1c2c"/>
  <rect x="8" y="21" width="16" height="1" fill="#1a1c2c"/>
  <rect x="7" y="9" width="18" height="2" fill="#7fbef5"/>
  <rect x="8" y="11" width="16" height="2" fill="#a8d4f9"/>
  <rect x="10" y="13" width="3" height="3" fill="#1a1c2c"/>
  <rect x="19" y="13" width="3" height="3" fill="#1a1c2c"/>
  <rect x="11" y="14" width="1" height="1" fill="#fff"/>
  <rect x="20" y="14" width="1" height="1" fill="#fff"/>
  <rect x="12" y="17" width="8" height="2" fill="#1a1c2c"/>
  <rect x="13" y="18" width="2" height="1" fill="#fff"/>
  <rect x="17" y="18" width="2" height="1" fill="#fff"/>
  <rect x="3" y="10" width="2" height="6" fill="#3a6dab"/>
  <rect x="2" y="11" width="1" height="4" fill="#3a6dab"/>
  <rect x="0" y="12" width="2" height="2" fill="#3a6dab"/>
  <rect x="27" y="10" width="2" height="6" fill="#3a6dab"/>
  <rect x="29" y="11" width="1" height="4" fill="#3a6dab"/>
  <rect x="30" y="12" width="2" height="2" fill="#3a6dab"/>
  <rect x="6" y="22" width="3" height="4" fill="#3a6dab"/>
  <rect x="11" y="23" width="2" height="3" fill="#3a6dab"/>
  <rect x="19" y="23" width="2" height="3" fill="#3a6dab"/>
  <rect x="23" y="22" width="3" height="4" fill="#3a6dab"/>
  <rect x="7" y="3" width="2" height="3" fill="#a8d4f9"/>
  <rect x="23" y="3" width="2" height="3" fill="#a8d4f9"/>
</svg>
