<svg xmlns="http://www.w3.org/2000/svg" width="32" height="32" viewBox="0 0 32 32" shape-rendering="crispEdges">
  <rect x="6" y="4" width="20" height="24" fill="#1a2e05"/>
  <rect x="4" y="6" width="24" height="20" fill="#365314"/>
  <rect x="6" y="6" width="20" height="20" fill="#4d7c0f"/>
  <rect x="8" y="8" width="16" height="16" fill="#65a30d"/>
  <rect x="10" y="10" width="12" height="12" fill="#7c2d12"/>
  <rect x="12" y="12" width="8" height="8" fill="#dc2626"/>
  <rect x="13" y="13" width="6" height="6" fill="#ef4444"/>
  <rect x="14" y="14" width="4" height="4" fill="#fca5a5"/>
  <rect x="15" y="15" width="2" height="2" fill="#fef3c7"/>
  <rect x="2" y="14" width="4" height="4" fill="#365314"/>
  <rect x="0" y="15" width="2" height="2" fill="#365314"/>
  <rect x="26" y="14" width="4" height="4" fill="#365314"/>
  <rect x="30" y="15" width="2" height="2" fill="#365314"/>
  <rect x="14" y="2" width="4" height="4" fill="#365314"/>
  <rect x="15" y="0" width="2" height="2" fill="#365314"/>
  <rect x="14" y="26" width="4" height="4" fill="#365314"/>
  <rect x="15" y="30" width="2" height="2" fill="#365314"/>
  <rect x="3" y="3" width="3" height="3" fill="#84cc16"/>
  <rect x="26" y="3" width="3" height="3" fill="#84cc16"/>
  <rect x="3" y="26" width="3" height="3" fill="#84cc16"/>
  <rect x="26" y="26" width="3" height="3" fill="#84cc16"/>
</svg>
