<svg xmlns="http://www.w3.org/2000/svg" width="24" height="24" viewBox="0 0 24 24" shape-rendering="crispEdges">
  <rect x="10" y="14" width="4" height="10" fill="#365314"/>
  <rect x="9" y="15" width="6" height="9" fill="#4d7c0f"/>
  <rect x="3" y="22" width="18" height="2" fill="#365314"/>
  <rect x="6" y="3" width="12" height="3" fill="#581c87"/>
  <rect x="4" y="5" width="16" height="3" fill="#7c3aed"/>
  <rect x="3" y="7" width="18" height="3" fill="#a855f7"/>
  <rect x="4" y="10" width="16" height="3" fill="#7c3aed"/>
  <rect x="5" y="12" width="14" height="2" fill="#581c87"/>
  <rect x="9" y="6" width="6" height="5" fill="#1a1c2c"/>
  <rect x="10" y="7" width="4" height="3" fill="#dc2626"/>
  <rect x="11" y="8" width="2" height="1" fill="#fef3c7"/>
  <rect x="0" y="6" width="3" height="2" fill="#a855f7"/>
  <rect x="21" y="6" width="3" height="2" fill="#a855f7"/>
  <rect x="0" y="9" width="3" height="2" fill="#a855f7"/>
  <rect x="21" y="9" width="3" height="2" fill="#a855f7"/>
  <rect x="2" y="2" width="2" height="2" fill="#a855f7"/>
  <rect x="20" y="2" width="2" height="2" fill="#a855f7"/>
</svg>
