<svg xmlns="http://www.w3.org/2000/svg" width="24" height="24" viewBox="0 0 24 24" shape-rendering="crispEdges">
  <rect x="4" y="6" width="16" height="14" fill="#1a2e05"/>
  <rect x="5" y="5" width="14" height="16" fill="#365314"/>
  <rect x="6" y="4" width="12" height="18" fill="#4d7c0f"/>
  <rect x="7" y="6" width="10" height="14" fill="#65a30d"/>
  <rect x="8" y="8" width="3" height="3" fill="#1a1c2c"/>
  <rect x="13" y="8" width="3" height="3" fill="#1a1c2c"/>
  <rect x="9" y="9" width="1" height="1" fill="#dc2626"/>
  <rect x="14" y="9" width="1" height="1" fill="#dc2626"/>
  <rect x="8" y="14" width="8" height="2" fill="#1a1c2c"/>
  <rect x="9" y="13" width="1" height="1" fill="#fef08a"/>
  <rect x="11" y="13" width="1" height="1" fill="#fef08a"/>
  <rect x="13" y="13" width="1" height="1" fill="#fef08a"/>
  <rect x="2" y="2" width="3" height="3" fill="#7c2d12"/>
  <rect x="19" y="2" width="3" height="3" fill="#7c2d12"/>
  <rect x="2" y="19" width="3" height="3" fill="#7c2d12"/>
  <rect x="19" y="19" width="3" height="3" fill="#7c2d12"/>
  <rect x="0" y="3" width="2" height="1" fill="#92400e"/>
  <rect x="22" y="3" width="2" height="1" fill="#92400e"/>
  <rect x="0" y="20" width="2" height="1" fill="#92400e"/>
  <rect x="22" y="20" width="2" height="1" fill="#92400e"/>
</svg>
