<svg xmlns="http://www.w3.org/2000/svg" width="24" height="24" viewBox="0 0 24 24" shape-rendering="crispEdges">
  <rect x="6" y="2" width="12" height="2" fill="#0f172a"/>
  <rect x="4" y="4" width="16" height="3" fill="#1e293b"/>
  <rect x="3" y="7" width="18" height="10" fill="#334155"/>
  <rect x="4" y="17" width="16" height="3" fill="#1e293b"/>
  <rect x="5" y="20" width="14" height="2" fill="#0f172a"/>
  <rect x="6" y="22" width="2" height="2" fill="#0f172a"/>
  <rect x="9" y="22" width="2" height="2" fill="#0f172a"/>
  <rect x="13" y="22" width="2" height="2" fill="#0f172a"/>
  <rect x="16" y="22" width="2" height="2" fill="#0f172a"/>
  <rect x="6" y="9" width="4" height="3" fill="#65a30d"/>
  <rect x="14" y="9" width="4" height="3" fill="#65a30d"/>
  <rect x="7" y="10" width="2" height="1" fill="#fef08a"/>
  <rect x="15" y="10" width="2" height="1" fill="#fef08a"/>
  <rect x="9" y="13" width="6" height="2" fill="#1a1c2c"/>
  <rect x="3" y="6" width="2" height="3" fill="#0f172a"/>
  <rect x="19" y="6" width="2" height="3" fill="#0f172a"/>
</svg>
