<svg xmlns="http://www.w3.org/2000/svg" width="16" height="16" viewBox="0 0 16 16" shape-rendering="crispEdges">
  <rect x="3" y="0" width="10" height="1" fill="#92400e"/>
  <rect x="2" y="1" width="12" height="1" fill="#f97316"/>
  <rect x="3" y="2" width="10" height="1" fill="#f97316"/>
  <rect x="5" y="2" width="2" height="1" fill="#3b82f6"/>
  <rect x="9" y="2" width="2" height="1" fill="#3b82f6"/>
  <rect x="4" y="3" width="8" height="1" fill="#1a1c2c"/>
  <rect x="4" y="4" width="8" height="3" fill="#fcd9b6"/>
  <rect x="6" y="5" width="1" height="1" fill="#1a1c2c"/>
  <rect x="9" y="5" width="1" height="1" fill="#1a1c2c"/>
  <rect x="5" y="4" width="1" height="1" fill="#92400e"/>
  <rect x="10" y="4" width="1" height="1" fill="#92400e"/>
  <rect x="5" y="7" width="6" height="5" fill="#fcd9b6"/>
  <rect x="7" y="8" width="2" height="2" fill="#dc2626"/>
  <rect x="4" y="8" width="1" height="3" fill="#fcd9b6"/>
  <rect x="11" y="8" width="1" height="3" fill="#fcd9b6"/>
  <rect x="11" y="6" width="2" height="2" fill="#fbbf24"/>
  <rect x="13" y="7" width="1" height="2" fill="#f97316"/>
  <rect x="13" y="8" width="1" height="1" fill="#dc2626"/>
  <rect x="5" y="11" width="6" height="1" fill="#f97316"/>
  <rect x="5" y="12" width="2" height="3" fill="#1a1c2c"/>
  <rect x="9" y="12" width="2" height="3" fill="#1a1c2c"/>
  <rect x="5" y="15" width="2" height="1" fill="#0f172a"/>
  <rect x="9" y="15" width="2" height="1" fill="#0f172a"/>
</svg>
