<svg xmlns="http://www.w3.org/2000/svg" width="16" height="16" viewBox="0 0 16 16" shape-rendering="crispEdges">
  <rect x="5" y="1" width="6" height="1" fill="#475569"/>
  <rect x="4" y="2" width="8" height="1" fill="#94a3b8"/>
  <rect x="4" y="3" width="8" height="3" fill="#d9c8a3"/>
  <rect x="6" y="4" width="1" height="1" fill="#1a1c2c"/>
  <rect x="9" y="4" width="1" height="1" fill="#1a1c2c"/>
  <rect x="4" y="6" width="8" height="1" fill="#94a3b8"/>
  <rect x="5" y="7" width="6" height="5" fill="#4a6f99"/>
  <rect x="6" y="8" width="4" height="2" fill="#5b85b3"/>
  <rect x="4" y="8" width="1" height="3" fill="#d9c8a3"/>
  <rect x="11" y="7" width="1" height="3" fill="#d9c8a3"/>
  <rect x="11" y="5" width="2" height="1" fill="#94a3b8"/>
  <rect x="12" y="4" width="1" height="1" fill="#cbd5e1"/>
  <rect x="5" y="12" width="2" height="3" fill="#3a3a3a"/>
  <rect x="9" y="12" width="2" height="3" fill="#3a3a3a"/>
  <rect x="5" y="15" width="2" height="1" fill="#1a1c2c"/>
  <rect x="9" y="15" width="2" height="1" fill="#1a1c2c"/>
</svg>
