<svg xmlns="http://www.w3.org/2000/svg" width="16" height="16" viewBox="0 0 16 16" shape-rendering="crispEdges">
  <rect x="5" y="0" width="1" height="1" fill="#ffffff"/>
  <rect x="7" y="0" width="2" height="1" fill="#ffffff"/>
  <rect x="10" y="0" width="1" height="1" fill="#ffffff"/>
  <rect x="4" y="1" width="8" height="2" fill="#f0f0f0"/>
  <rect x="6" y="1" width="1" height="1" fill="#ffffff"/>
  <rect x="9" y="1" width="1" height="1" fill="#ffffff"/>
  <rect x="3" y="2" width="1" height="1" fill="#d8d8d8"/>
  <rect x="12" y="2" width="1" height="1" fill="#d8d8d8"/>
  <rect x="4" y="3" width="8" height="3" fill="#fcd9b6"/>
  <rect x="4" y="3" width="2" height="1" fill="#f0f0f0"/>
  <rect x="10" y="3" width="2" height="1" fill="#f0f0f0"/>
  <rect x="5" y="4" width="2" height="1" fill="#22d3ee"/>
  <rect x="9" y="4" width="2" height="1" fill="#22d3ee"/>
  <rect x="6" y="4" width="1" height="1" fill="#67e8f9"/>
  <rect x="10" y="4" width="1" height="1" fill="#67e8f9"/>
  <rect x="7" y="5" width="2" height="1" fill="#c89878"/>
  <rect x="6" y="6" width="4" height="1" fill="#fcd9b6"/>
  <rect x="4" y="7" width="1" height="3" fill="#fcd9b6"/>
  <rect x="11" y="7" width="1" height="3" fill="#fcd9b6"/>
  <rect x="3" y="9" width="1" height="1" fill="#fcd9b6"/>
  <rect x="12" y="9" width="1" height="1" fill="#fcd9b6"/>
  <rect x="5" y="7" width="6" height="2" fill="#1a1c2c"/>
  <rect x="6" y="8" width="4" height="1" fill="#2a2c3c"/>
  <rect x="5" y="9" width="6" height="1" fill="#0a0a14"/>
  <rect x="5" y="10" width="6" height="3" fill="#f5f5ec"/>
  <rect x="5" y="10" width="6" height="1" fill="#ffffff"/>
  <rect x="7" y="11" width="2" height="2" fill="#dadada"/>
  <rect x="5" y="13" width="2" height="2" fill="#1a2440"/>
  <rect x="9" y="13" width="2" height="2" fill="#1a2440"/>
  <rect x="5" y="15" width="2" height="1" fill="#050a18"/>
  <rect x="9" y="15" width="2" height="1" fill="#050a18"/>
</svg>
