<svg xmlns="http://www.w3.org/2000/svg" width="16" height="16" viewBox="0 0 16 16" shape-rendering="crispEdges">
  <rect x="5" y="0" width="6" height="1" fill="#1a1c2c"/>
  <rect x="4" y="1" width="2" height="2" fill="#1a1c2c"/>
  <rect x="6" y="1" width="1" height="2" fill="#1a1c2c"/>
  <rect x="8" y="1" width="1" height="2" fill="#1a1c2c"/>
  <rect x="10" y="1" width="2" height="2" fill="#1a1c2c"/>
  <rect x="9" y="1" width="1" height="1" fill="#1a1c2c"/>
  <rect x="4" y="3" width="8" height="3" fill="#fcd9b6"/>
  <rect x="6" y="4" width="1" height="1" fill="#1a1c2c"/>
  <rect x="9" y="4" width="1" height="1" fill="#1a1c2c"/>
  <rect x="4" y="6" width="8" height="1" fill="#1e3a8a"/>
  <rect x="5" y="7" width="6" height="5" fill="#f97316"/>
  <rect x="6" y="8" width="4" height="3" fill="#fb923c"/>
  <rect x="4" y="8" width="1" height="3" fill="#fcd9b6"/>
  <rect x="11" y="8" width="1" height="3" fill="#fcd9b6"/>
  <rect x="4" y="7" width="1" height="1" fill="#1e3a8a"/>
  <rect x="11" y="7" width="1" height="1" fill="#1e3a8a"/>
  <rect x="5" y="11" width="6" height="1" fill="#1e3a8a"/>
  <rect x="5" y="12" width="2" height="3" fill="#f97316"/>
  <rect x="9" y="12" width="2" height="3" fill="#f97316"/>
  <rect x="5" y="15" width="2" height="1" fill="#1e3a8a"/>
  <rect x="9" y="15" width="2" height="1" fill="#1e3a8a"/>
</svg>
